<svg xmlns="http://www.w3.org/2000/svg" xml:space="preserve" baseProfile="tiny" overflow="visible" viewBox="0 0 120 30"><linearGradient id="a" x1="1.212" x2="118.788" y1="17.296" y2="17.296" gradientUnits="userSpaceOnUse"><stop offset="0" style="stop-color:#3aebfe"/><stop offset=".858" style="stop-color:#ff8ba0"/></linearGradient><path fill="url(#a)" d="M63.33 13.76c-1.22.69-2.32 1.54-3.19 2.66-2.11 2.72-2.25 5.72-1.08 8.81 1.11 2.92 3.6 3.96 6.48 4.36 2.75.39 5.5.07 7.76.19h6.93c1.51 0 2.06-.44 2.38-1.9.51-2.34-.59-3.73-2.97-3.73h-11.6c-.46 0-.92-.01-1.38-.13-1.04-.26-1.92-.74-2.19-1.81-.31-1.23.05-2.32 1.08-3.15 1.43-1.16 3.13-1.68 4.86-2.15 3.15-.84 6.38-1.13 9.62-1.25.98-.03 1.57-.43 1.83-1.32.17-.58.35-1.18.35-1.77-.01-1.97-.88-2.72-2.82-2.65-2.93.1-5.8.68-8.67 1.21-.65.12-.88.03-.99-.65-.21-1.26-.54-2.5-.78-3.76-.11-.57-.34-1.03-.85-1.29-1.4-.71-2.86-.92-4.32-.22-.83.4-1.29 1.02-1.02 2.08.43 1.72.71 3.49 1.09 5.22.13.61 0 .96-.52 1.25z"/><linearGradient id="b" x1="1.212" x2="118.788" y1="17.627" y2="17.627" gradientUnits="userSpaceOnUse"><stop offset="0" style="stop-color:#3aebfe"/><stop offset=".858" style="stop-color:#ff8ba0"/></linearGradient><path fill="url(#b)" d="M87.99 21.89c1.62.34 3.32.57 4.71-.59 1.65-1.39 3.54-2.15 5.62-2.39 1.51-.18 3.04-.33 4.58-.07 1.61.28 2.31 1.39 1.84 2.96-.42 1.4-1.59 1.84-2.84 2.12-3.07.69-6.19.39-9.29.43-1.96.03-2.8.67-2.85 2.62-.04 1.56.42 2.98 2.14 3 3.82.04 7.64 0 11.42-.66 1.76-.3 3.49-.8 4.92-1.97 2.7-2.21 2.89-5.19 2.41-8.3-.44-2.86-2.23-4.61-4.99-5.22-4.14-.92-8.22-.71-12.14 1.07-1.18.53-1.18.54-1.18-.79 0-2-.09-4.01.02-6.01.14-2.32-.97-2.56-2.52-2.81-1.79-.29-2.95.76-2.96 2.54v5.9c0 2.18.02 4.36-.01 6.55-.02.87.34 1.46 1.12 1.62z"/><linearGradient id="c" x1="1.212" x2="118.788" y1="5.46" y2="5.46" gradientUnits="userSpaceOnUse"><stop offset="0" style="stop-color:#3aebfe"/><stop offset=".858" style="stop-color:#ff8ba0"/></linearGradient><path fill="url(#c)" d="M116.23 0c-1.99-.03-5.73 1.1-9.35 4.09-3.01 2.49-8.69 1.58-10.18 1.4-.9-.1-1.5.49-1.75 1.29-.31.97-.23 1.97.13 2.93.21.57.59.9 1.24 1.01 2.06.33 4.13.12 5.61.19 4.95-.07 7.15-2.6 10.03-4.3 2.32-1.37 3.94-1.37 4.86-1.37.43 0 .84-.01 1.19-.35.78-.76 1-2.31.52-3.62-.41-1.1-1.24-1.25-2.3-1.27z"/><linearGradient id="d" x1="1.212" x2="118.788" y1="8.941" y2="8.941" gradientUnits="userSpaceOnUse"><stop offset="0" style="stop-color:#3aebfe"/><stop offset=".858" style="stop-color:#ff8ba0"/></linearGradient><path fill="url(#d)" d="M32.69 11.96c4.29 0 8.58.08 12.86-.03 2.23-.06 4.49-.14 6.7-.59.53-.11.97-.3 1.23-.75.64-1.16.63-2.42.25-3.62-.21-.69-.87-1.13-1.69-1.06-.46.04-.91.13-1.37.21-3.54.62-7.12.4-10.68.43h-6.65c-2.33 0-3.39 1.4-2.8 3.69.36 1.38.78 1.72 2.15 1.72z"/><linearGradient id="e" x1="1.212" x2="118.788" y1="21.294" y2="21.294" gradientUnits="userSpaceOnUse"><stop offset="0" style="stop-color:#3aebfe"/><stop offset=".858" style="stop-color:#ff8ba0"/></linearGradient><path fill="url(#e)" d="M29.63 16.2c-.14.73-.15 1.5.02 2.24.3 1.26.87 1.68 2.22 1.68 3.65 0 7.3-.02 10.94 0 .57 0 1.44-.33 1.67.25.27.68-.44 1.28-.89 1.82-.15.19-.38.32-.59.46-1.38.94-2.95 1.24-4.57 1.28-1.93.05-3.86.03-5.79 0-1.01-.02-1.62.5-1.94 1.38-.35 1-.35 2.02.02 3.04.32.87.92 1.4 1.82 1.41 3.71.06 7.44.16 11.05-.86 3.95-1.12 6.97-3.89 7.06-8.1.01-.51.23-.7.72-.68.39.02.79.01 1.18 0 1.3-.02 1.98-.6 2.16-1.89.07-.46.05-.93.03-1.39-.06-1.65-.75-2.33-2.38-2.34-.79-.01-1.64.21-1.92-.94-.09-.35-.59-.47-.98-.56a7.195 7.195 0 0 0-3.39.01c-.55.13-1.09.35-1.2.92-.12.62-.48.58-.92.58-2.04-.01-4.08 0-6.12 0h-6.01c-1.26-.01-1.95.48-2.19 1.69z"/><linearGradient id="f" x1="1.227" x2="118.802" y1="17.29" y2="17.29" gradientUnits="userSpaceOnUse"><stop offset="0" style="stop-color:#3aebfe"/><stop offset=".858" style="stop-color:#ff8ba0"/></linearGradient><path fill="url(#f)" d="M19.1 9c.05-.76-.29-1.01-1.01-.99-1.11.03-2.22 0-3.33 0-.48 0-.79-.11-.83-.71-.11-1.41-.61-1.95-1.94-2.22-2.14-.44-3.37.32-3.89 2.43-.14.57-.53.5-.91.5-1.29.01-2.58.04-3.87-.01-.9-.03-1.43.38-1.7 1.17-.17.5-.33 1.02-.38 1.55-.17 1.9.81 2.96 2.68 2.96 1.07 0 2.15.04 3.22-.01.76-.04.99.26.96.99-.12 3.58-1.64 6.4-4.82 8.01-1.92.97-2.41 3.64-1.64 5.37.41.93 1.32 1.38 2.19 1 2.15-.92 4.11-2.16 5.73-3.87 2.85-3.01 4.25-6.63 4.36-10.75.02-.56.23-.75.77-.74 1.57.02 3.15.01 4.72 0 .62 0 .91.27.91.91-.01 2.4.03 4.8-.02 7.19-.03 1.44-.81 2.11-2.26 2.16-.32.01-.65.03-.97 0-2.22-.17-2.62.6-2.94 2.5-.32 1.93.74 3.17 2.65 3.16.97 0 1.94.05 2.9-.04 3.21-.31 5.48-1.28 6.1-5.1.38-2.31.1-4.64.21-6.49 0-2.47-.02-4.47.01-6.48.01-.79-.3-1.1-1.08-1.08-1.43.03-2.86-.02-4.29.01-.99.02-1.59-.35-1.53-1.42z"/><linearGradient id="g" x1="1.212" x2="118.788" y1="7.014" y2="7.014" gradientUnits="userSpaceOnUse"><stop offset="0" style="stop-color:#3aebfe"/><stop offset=".858" style="stop-color:#ff8ba0"/></linearGradient><path fill="url(#g)" d="M22.94 5.54c-.1-.83-.72-.96-1.41-.93-.66.03-1.21.2-1.21 1.01-.01.92-.01 1.85-.01 2.77 0 .65.34.95.98 1.01 1.23.11 1.67-.26 1.67-1.52v-.85h-.01c0-.5.05-1-.01-1.49z"/><linearGradient id="h" x1="1.212" x2="118.788" y1="7.019" y2="7.019" gradientUnits="userSpaceOnUse"><stop offset="0" style="stop-color:#3aebfe"/><stop offset=".858" style="stop-color:#ff8ba0"/></linearGradient><path fill="url(#h)" d="M25.53 9.43c1.15-.04 1.49-.33 1.51-1.43.01-.64.01-1.28 0-1.92-.02-1.06-.45-1.48-1.5-1.47-.99.01-1.32.38-1.34 1.48v.96c0 .32.03.64-.01.96-.1 1 .32 1.45 1.34 1.42z"/></svg>