<?xml version="1.0" encoding="iso-8859-1"?>
<!-- Generator: Adobe Illustrator 28.5.0, SVG Export Plug-In . SVG Version: 9.03 Build 54727)  -->
<svg version="1.1" id="&#x30EC;&#x30A4;&#x30E4;&#x30FC;_1"
	 xmlns="http://www.w3.org/2000/svg" xmlns:xlink="http://www.w3.org/1999/xlink" x="0px" y="0px" viewBox="0 0 20.006 20"
	 enable-background="new 0 0 20.006 20" xml:space="preserve">
<g>
	<path fill="#CACACA" d="M17.448,6.831L9.65,14.63c-0.272,0.272-0.625,0.437-1.004,0.475l-2.728,0.252c0,0-0.073,0-0.102,0
		c-0.305,0-0.606-0.12-0.819-0.344c-0.242-0.242-0.364-0.587-0.335-0.931l0.252-2.728c0.035-0.378,0.203-0.732,0.475-1.004
		l7.78-7.798L17.448,6.831z M19.251,1.408l-0.659-0.659c-0.994-0.999-2.622-0.999-3.621,0l-0.819,0.814l4.284,4.284l0.814-0.819
		c0.485-0.485,0.756-1.129,0.756-1.808c0-0.679-0.27-1.328-0.756-1.803V1.408z M18.145,16.521v-5.41
		c0-0.377-0.314-0.697-0.697-0.697s-0.697,0.32-0.697,0.697v5.41c0,1.154-0.941,2.093-2.094,2.093H3.489
		c-1.154,0-2.094-0.939-2.094-2.093V5.344c0-1.154,0.941-2.094,2.094-2.094h5.409c0.378,0,0.699-0.314,0.699-0.697
		c0-0.383-0.32-0.697-0.699-0.697H3.489C1.565,1.855,0,3.419,0,5.344v11.167C0,18.435,1.565,20,3.489,20h11.167
		c1.924,0,3.489-1.565,3.489-3.489V16.521z M18.145,16.521"/>
</g>
<g>
</g>
<g>
</g>
<g>
</g>
<g>
</g>
<g>
</g>
<g>
</g>
<g>
</g>
<g>
</g>
<g>
</g>
<g>
</g>
<g>
</g>
<g>
</g>
<g>
</g>
<g>
</g>
<g>
</g>
</svg>
