<?xml version="1.0" encoding="iso-8859-1"?>
<!-- Generator: Adobe Illustrator 28.5.0, SVG Export Plug-In . SVG Version: 9.03 Build 54727)  -->
<svg version="1.1" id="&#x30EC;&#x30A4;&#x30E4;&#x30FC;_1"
	 xmlns="http://www.w3.org/2000/svg" xmlns:xlink="http://www.w3.org/1999/xlink" x="0px" y="0px" viewBox="0 0 24.28 20"
	 enable-background="new 0 0 24.28 20" xml:space="preserve">
<g>
	<g>
		<path fill="#FF4271" d="M22.879,2.525c-1.789-2.351-4.955-3.172-7.661-1.986c-1.177,0.508-2.227,1.364-3.078,2.5
			c-0.851-1.139-1.901-1.995-3.078-2.5C6.357-0.647,3.19,0.174,1.401,2.525C0.484,3.726,0,5.227,0,6.866
			c0,2.358,1.406,4.945,4.179,7.692c2.26,2.237,4.93,4.07,6.32,4.963c1,0.64,2.281,0.64,3.281,0c1.389-0.893,4.06-2.725,6.32-4.963
			c2.773-2.746,4.179-5.334,4.179-7.692C24.28,5.227,23.796,3.726,22.879,2.525L22.879,2.525z M22.879,2.525"/>
	</g>
</g>
</svg>
