<?xml version="1.0" encoding="iso-8859-1"?>
<!-- Generator: Adobe Illustrator 28.5.0, SVG Export Plug-In . SVG Version: 9.03 Build 54727)  -->
<svg version="1.1" id="&#x30EC;&#x30A4;&#x30E4;&#x30FC;_1"
	 xmlns="http://www.w3.org/2000/svg" xmlns:xlink="http://www.w3.org/1999/xlink" x="0px" y="0px" viewBox="0 0 20 20"
	 enable-background="new 0 0 20 20" xml:space="preserve">
<g>
	<path fill="#FFFFFF" d="M9.269,15.559c0.194,0.194,0.457,0.303,0.731,0.303c0.274,0,0.537-0.109,0.731-0.303l3.901-3.901
		c0.404-0.404,0.404-1.059,0-1.463c-0.404-0.404-1.059-0.404-1.463,0l-2.135,2.135V1.034C11.034,0.463,10.571,0,10,0
		C9.429,0,8.966,0.463,8.966,1.034V12.33L6.83,10.195c-0.404-0.404-1.059-0.404-1.463,0c-0.404,0.404-0.404,1.059,0,1.463
		L9.269,15.559z M9.269,15.559"/>
	<path fill="#FFFFFF" d="M18.966,8.966c-0.571,0-1.034,0.463-1.034,1.034v7.931H2.069V10c0-0.571-0.463-1.034-1.034-1.034
		C0.463,8.966,0,9.429,0,10v8.276C0,19.228,0.772,20,1.724,20h16.552C19.228,20,20,19.228,20,18.276V10
		C20,9.429,19.537,8.966,18.966,8.966L18.966,8.966z M18.966,8.966"/>
</g>
<g>
</g>
<g>
</g>
<g>
</g>
<g>
</g>
<g>
</g>
<g>
</g>
<g>
</g>
<g>
</g>
<g>
</g>
<g>
</g>
<g>
</g>
<g>
</g>
<g>
</g>
<g>
</g>
<g>
</g>
</svg>
