<?xml version="1.0" encoding="iso-8859-1"?>
<!-- Generator: Adobe Illustrator 28.5.0, SVG Export Plug-In . SVG Version: 9.03 Build 54727)  -->
<svg version="1.1" id="&#x30EC;&#x30A4;&#x30E4;&#x30FC;_1"
	 xmlns="http://www.w3.org/2000/svg" xmlns:xlink="http://www.w3.org/1999/xlink" x="0px" y="0px" viewBox="0 0 12.665 20"
	 enable-background="new 0 0 12.665 20" xml:space="preserve">
<g>
	<path d="M2.63,17.287v0.84C2.63,19.597,3.176,20,5.169,20h3.17c1.995,0,2.541-0.403,2.541-1.873v-0.84H2.63z M2.63,17.287" fill="rgba(136,136,136,1)"/>
	<path d="M5.663,8.213L1.262,8.738c-1.279,0.334-1.502,0.988-1.043,3.016c0.407,1.802,1.022,2.526,1.515,3.106
		c0.428,0.505,0.801,0.951,0.878,1.836h8.281c0.065-0.844,0.439-1.313,0.86-1.83c0.422-0.515,0.915-1.117,0.912-2.723l-0.003-1.838
		c-0.012,0.006-0.02,0.011-0.028,0.015c-0.277,0.136-0.587,0.204-0.896,0.204c-0.311,0-0.62-0.067-0.898-0.204
		c-0.182-0.09-0.337-0.209-0.47-0.344c-0.157,0.302-0.422,0.564-0.767,0.732c-0.278,0.136-0.588,0.202-0.898,0.202
		c-0.31,0-0.62-0.066-0.898-0.202c-0.281-0.138-0.509-0.334-0.668-0.567c-0.016,0.031-0.027,0.063-0.043,0.094
		c-0.288,0.543-0.82,0.744-1.353,0.88l-0.295,0.054c0.887,0.792,1.022,2.074,1.022,3.26c0,0.164-0.137,0.294-0.307,0.294
		c-0.17,0-0.307-0.131-0.307-0.294c0-1.26-0.142-2.504-1.176-3.079c-0.015-0.008-0.025-0.022-0.039-0.032L2.914,11.64
		c-0.166,0.029-0.327-0.075-0.359-0.235c-0.033-0.16,0.077-0.314,0.244-0.345l2.806-0.518C6.054,10.428,6.38,10.29,6.548,9.97
		c0.195-0.368,0.195-0.822,0-1.188c-0.185-0.35-0.523-0.568-0.884-0.568L5.663,8.213L5.663,8.213z M5.663,8.213" fill="rgba(136,136,136,1)"/>
	<path d="M11.082,5.786c-0.147,0.072-0.265,0.173-0.352,0.291c0,0-0.154,3.182-0.152,3.189c0.038,0.146,0.244,0.387,0.539,0.531
		c0.382,0.187,0.856,0.185,1.238,0c0.094-0.046,0.18-0.101,0.256-0.167c0.014-0.013,0.032-0.029,0.049-0.046l-0.006-3.095
		c0-0.011,0.004-0.019,0.006-0.029c-0.013-0.273-0.2-0.53-0.5-0.674c-0.165-0.079-0.352-0.118-0.539-0.118
		C11.435,5.668,11.248,5.708,11.082,5.786L11.082,5.786z M11.082,5.786" fill="rgba(136,136,136,1)"/>
	<path d="M8.292,5.115c-0.364,0.178-0.589,0.505-0.589,0.85c0,0.004-0.001,0.006-0.001,0.009v0.01L7.494,9.353
		c0,0.328,0.227,0.654,0.591,0.832c0.382,0.187,0.856,0.187,1.239,0c0.364-0.178,0.589-0.503,0.589-0.85l0.211-3.372
		c0.021-0.344-0.229-0.669-0.591-0.847H9.531c-0.191-0.093-0.404-0.14-0.619-0.14C8.699,4.975,8.483,5.022,8.292,5.115L8.292,5.115z
		 M8.292,5.115" fill="rgba(136,136,136,1)"/>
	<path d="M5.879,4.975c-0.215,0-0.429,0.046-0.62,0.14c-0.363,0.178-0.589,0.505-0.589,0.85v1.774c0,0,1.224-0.114,1.226-0.114
		c0.269,0,0.741,0.247,1.049,0.657l0.143-2.319C7.087,5.619,6.859,5.294,6.496,5.116C6.307,5.022,6.092,4.975,5.879,4.975
		L5.879,4.975z M5.879,4.975" fill="rgba(136,136,136,1)"/>
	<path d="M1.973,1.016L1.801,8.079l2.266-0.268c-0.005-0.02-0.013-0.037-0.013-0.056V5.973L3.899,0.996C3.877,0.285,3.398,0,2.97,0
		C2.534,0,1.991,0.298,1.973,1.016L1.973,1.016z M1.973,1.016" fill="rgba(136,136,136,1)"/>
</g>
<g>
</g>
<g>
</g>
<g>
</g>
<g>
</g>
<g>
</g>
<g>
</g>
<g>
</g>
<g>
</g>
<g>
</g>
<g>
</g>
<g>
</g>
<g>
</g>
<g>
</g>
<g>
</g>
<g>
</g>
</svg>
