<?xml version="1.0" encoding="iso-8859-1"?>
<!-- Generator: Adobe Illustrator 28.5.0, SVG Export Plug-In . SVG Version: 9.03 Build 54727)  -->
<svg version="1.1" id="&#x30EC;&#x30A4;&#x30E4;&#x30FC;_1"
	 xmlns="http://www.w3.org/2000/svg" xmlns:xlink="http://www.w3.org/1999/xlink" x="0px" y="0px" viewBox="0 0 20 20"
	 enable-background="new 0 0 20 20" xml:space="preserve">
<g>
	<g>
		<path fill="#FFFFFF" d="M16.471,20H2.353C1.059,20,0,18.941,0,17.647V3.529c0-1.294,1.059-2.353,2.353-2.353h4.706
			c0.706,0,1.176,0.47,1.176,1.176s-0.47,1.176-1.176,1.176H2.353v14.118h14.118v-4.706c0-0.706,0.47-1.176,1.176-1.176
			c0.706,0,1.176,0.47,1.176,1.176v4.706C18.823,18.941,17.765,20,16.471,20L16.471,20z M16.471,20"/>
		<path fill="#FFFFFF" d="M18.823,8.235c-0.706,0-1.176-0.47-1.176-1.176V2.353h-4.706c-0.706,0-1.176-0.47-1.176-1.176
			S12.235,0,12.941,0h5.882C19.529,0,20,0.471,20,1.177v5.882C20,7.765,19.529,8.235,18.823,8.235L18.823,8.235z M18.823,8.235"/>
		<path fill="#FFFFFF" d="M10.588,10.588c-0.353,0-0.588-0.118-0.823-0.353c-0.471-0.47-0.471-1.176,0-1.647L18,0.353
			c0.47-0.471,1.176-0.471,1.647,0c0.471,0.47,0.471,1.176,0,1.647l-8.235,8.235C11.176,10.47,10.941,10.588,10.588,10.588
			L10.588,10.588z M10.588,10.588"/>
	</g>
</g>
<g>
</g>
<g>
</g>
<g>
</g>
<g>
</g>
<g>
</g>
<g>
</g>
<g>
</g>
<g>
</g>
<g>
</g>
<g>
</g>
<g>
</g>
<g>
</g>
<g>
</g>
<g>
</g>
<g>
</g>
</svg>
