<?xml version="1.0" encoding="UTF-8"?>
<svg id="_レイヤー_1" data-name="レイヤー 1" xmlns="http://www.w3.org/2000/svg" baseProfile="tiny" version="1.2" viewBox="0 0 60 57.5">
  <path d="M30,0C13.5,0,0,11,0,24.5s10.7,22.2,25.1,24.2c1,.2,2.3.7,2.6,1.5.3.8.2,1.9,0,2.7l-.4,2.6c-.1.8-.6,3,2.6,1.6,3.2-1.4,17.3-10.3,23.6-17.5,4.3-4.8,6.4-9.6,6.4-15C60,11,46.5,0,30,0h0ZM18.3,32.5h-6c-.9,0-1.6-.7-1.6-1.6v-12c0-.9.7-1.6,1.6-1.6s1.6.7,1.6,1.6v10.4h4.4c.9,0,1.6.7,1.6,1.6s-.7,1.6-1.6,1.6h0ZM24.4,31c0,.9-.7,1.6-1.6,1.6s-1.6-.7-1.6-1.6v-12c0-.9.7-1.6,1.6-1.6s1.6.7,1.6,1.6v12ZM38.8,31c0,.7-.4,1.3-1.1,1.5-.2,0-.3,0-.5,0-.5,0-1-.2-1.3-.6l-6.1-8.3v7.4c0,.9-.7,1.6-1.6,1.6s-1.6-.7-1.6-1.6v-12c0-.7.4-1.3,1.1-1.5.1,0,.3,0,.5,0,.5,0,.9.3,1.2.6l6.2,8.4v-7.4c0-.9.7-1.6,1.6-1.6s1.6.7,1.6,1.6v12ZM48.4,23.4c.9,0,1.6.7,1.6,1.6s-.7,1.6-1.6,1.6h-4.4v2.8h4.4c.9,0,1.6.7,1.6,1.6s-.7,1.6-1.6,1.6h-6c-.9,0-1.6-.7-1.6-1.6v-12c0-.9.7-1.6,1.6-1.6h6c.9,0,1.6.7,1.6,1.6s-.7,1.6-1.6,1.6h-4.4v2.8h4.4ZM48.4,23.4" fill="#fff" stroke-width="0"/>
</svg>