<?xml version="1.0" encoding="UTF-8"?>
<svg id="_レイヤー_1" data-name="レイヤー 1" xmlns="http://www.w3.org/2000/svg" baseProfile="tiny" version="1.2" viewBox="0 0 60 60">
  <path d="M30,0c5.6,0,10.6,1.4,15.1,4.1,4.5,2.6,8.2,6.4,10.8,10.8,2.7,4.5,4,9.6,4.1,15.2-.2,7.7-2.6,14.3-7.3,19.7-4.7,5.4-10.7,8.8-16.9,10.1v-21.6h5.9l1.3-8.5h-8.9v-5.6c0-1.2.3-2.3,1-3.2.7-.9,2-1.4,3.8-1.4h5.4v-7.4c0,0-.8-.1-2.2-.3-1.6-.2-3.2-.3-4.7-.3-3.6,0-6.4,1-8.5,3-2.1,2-3.2,4.9-3.2,8.7v6.4h-6.8v8.5h6.8v21.6c-7.6-1.3-13.7-4.7-18.3-10.1C2.6,44.4.2,37.9,0,30.2c0-5.6,1.4-10.7,4.1-15.2,2.6-4.5,6.3-8.2,10.8-10.8C19.4,1.4,24.4,0,30,0h0ZM30,0" fill="#fff" fill-rule="evenodd" stroke-width="0"/>
</svg>