<?xml version="1.0" encoding="UTF-8"?>
<svg id="_レイヤー_1" xmlns="http://www.w3.org/2000/svg" version="1.1" viewBox="0 0 7.1 11">
  <!-- Generator: Adobe Illustrator 29.1.0, SVG Export Plug-In . SVG Version: 2.1.0 Build 142)  -->
  <defs>
    <style>
      .st0 {
        fill: #00d8f0;
      }
    </style>
  </defs>
  <path class="st0" d="M.8,0C.5,0,.2.2.1.5c-.1.3,0,.7.2.9l4.8,4.1L.3,9.6c-.2.1-.3.3-.3.6,0,.2,0,.4.2.6.2.2.3.3.5.3s.4,0,.6-.2l5.5-4.7c.2-.2.3-.4.3-.6s-.1-.4-.3-.6L1.3.2c-.1-.2-.3-.2-.5-.2h0Z"/>
</svg>