<?xml version="1.0" encoding="iso-8859-1"?>
<!-- Generator: Adobe Illustrator 28.5.0, SVG Export Plug-In . SVG Version: 9.03 Build 54727)  -->
<svg version="1.1" id="&#x30EC;&#x30A4;&#x30E4;&#x30FC;_1"
	 xmlns="http://www.w3.org/2000/svg" xmlns:xlink="http://www.w3.org/1999/xlink" x="0px" y="0px" viewBox="0 0 15 20"
	 enable-background="new 0 0 15 20" xml:space="preserve">
<g>
	<path fill="#FFFFFF" d="M1.249,0C0.568,0,0,0.569,0,1.25v17.501C0,19.433,0.568,20,1.249,20c0.059,0,9.431,0,12.501,0
		c0.681,0,1.249-0.567,1.249-1.249L15,4.999h-4.371c-0.345,0-0.614-0.277-0.629-0.623V0H1.249z M11.25,0v3.749H15
		c-0.005-0.168-0.065-0.328-0.188-0.443l-3.08-3.081C11.56,0.052,11.483,0,11.25,0L11.25,0z M3.751,6.874h7.496
		c0.834,0,0.834,1.251,0,1.251H3.751C2.917,8.125,2.917,6.874,3.751,6.874L3.751,6.874z M3.751,9.998h7.496
		c0.834,0,0.834,1.25,0,1.25H3.751C2.917,11.248,2.917,9.998,3.751,9.998L3.751,9.998z M3.751,13.126h7.496
		c0.834,0,0.834,1.25,0,1.25H3.751C2.917,14.376,2.917,13.126,3.751,13.126L3.751,13.126z M3.751,13.126"/>
</g>
<g>
</g>
<g>
</g>
<g>
</g>
<g>
</g>
<g>
</g>
<g>
</g>
<g>
</g>
<g>
</g>
<g>
</g>
<g>
</g>
<g>
</g>
<g>
</g>
<g>
</g>
<g>
</g>
<g>
</g>
</svg>
